Coordinates
version=1
nRows=12
nColumns=24
inDegrees=yes

Units are S.I. units (second, meters, Newtons, ...)
Angles are in degrees.

endheader
time	pelvis_tilt	pelvis_list	pelvis_rotation	pelvis_tx	pelvis_ty	pelvis_tz	hip_flexion_r	hip_adduction_r	hip_rotation_r	knee_angle_r	ankle_angle_r	subtalar_angle_r	mtp_angle_r	hip_flexion_l	hip_adduction_l	hip_rotation_l	knee_angle_l	ankle_angle_l	subtalar_angle_l	mtp_angle_l	lumbar_extension	lumbar_bending	lumbar_rotation
      1.58000000	     20.63286815	     -3.88010352	      4.66546765	     -0.23835233	      0.85739424	     -0.01230509	     -1.81007905	      3.63588073	    -13.14803093	    -44.03126632	     32.09336407	      4.98249771	     32.16470760	    -19.58624873	     -2.69054710	    -10.53728846	    -17.77331223	     27.85802255	     10.63500333	     31.12981809	    -37.51130010	      6.86139017	     -7.84387879
      1.58500000	     20.80539700	     -4.25291168	      4.84375461	     -0.23258231	      0.85766392	     -0.01238880	     -2.04193019	      4.17419516	    -13.45937240	    -41.03505114	     32.05395840	      5.19814655	     32.25481692	    -20.25981011	     -3.16950386	    -10.60875945	    -17.59730211	     28.15344321	     10.74227368	     30.93446598	    -37.68427624	      7.35277111	     -7.78144620
      1.59000000	     20.98363901	     -4.66922409	      5.02341634	     -0.22672159	      0.85786778	     -0.01232298	     -2.37098421	      4.80854354	    -13.72666315	    -37.82375452	     31.83405737	      5.25448962	     33.03652248	    -20.89411549	     -3.73826352	    -10.86429895	    -17.56782120	     28.61388912	     11.21911285	     29.99063320	    -37.85179591	      7.86742305	     -7.67658232
      1.59500000	     21.21393555	     -4.99063394	      5.26204462	     -0.22078638	      0.85809189	     -0.01245914	     -2.84483674	      5.33094894	    -14.14863271	    -34.51043737	     31.63257069	      5.54335541	     33.12047435	    -21.65040039	     -4.18518658	    -10.88030955	    -17.35060213	     28.82816214	     11.22026283	     29.86162052	    -38.05770003	      8.34061775	     -7.65964240
      1.60000000	     21.43475923	     -5.32255043	      5.49519539	     -0.21473305	      0.85819935	     -0.01245167	     -3.38567994	      5.90705883	    -14.54037820	    -31.05618886	     31.29260795	      5.76595626	     33.34233423	    -22.36520814	     -4.68003611	    -11.06199674	    -17.24456723	     29.12131953	     11.49209291	     29.72714692	    -38.23574787	      8.80291164	     -7.62474370
      1.60500000	     21.63266609	     -5.64105801	      5.67141974	     -0.20860999	      0.85816364	     -0.01226063	     -3.95322852	      6.49709924	    -14.83416859	    -27.53212345	     30.73645447	      5.96349672	     34.10208412	    -23.03947652	     -5.16198661	    -11.38432531	    -17.22247790	     29.52559902	     11.91907431	     29.40034060	    -38.38519801	      9.20618668	     -7.53211814
      1.61000000	     21.77466406	     -5.88009231	      5.94959180	     -0.20241551	      0.85793672	     -0.01218666	     -4.50399456	      7.01253181	    -15.32190598	    -23.99584029	     30.01994123	      6.05742014	     35.74745716	    -23.61422511	     -5.60263799	    -11.54384810	    -17.26299159	     29.94908826	     12.31274156	     28.74493684	    -38.44768394	      9.58840662	     -7.63818279
      1.61500000	     21.92121852	     -6.01562474	      6.18159858	     -0.19617657	      0.85761554	     -0.01209855	     -5.07321446	      7.40816832	    -15.84136940	    -20.57475173	     29.44350130	      6.52422436	     35.90393448	    -24.24205061	     -5.89686067	    -11.61440278	    -17.20544328	     30.20533816	     12.41829074	     28.68287309	    -38.51195331	      9.85301568	     -7.70495451
      1.62000000	     22.00423768	     -6.16353213	      6.35803130	     -0.18984910	      0.85705663	     -0.01175421	     -5.58851352	      7.84808420	    -16.24567962	    -17.18681451	     28.55919955	      6.71660279	     37.52601104	    -24.74027528	     -6.23362376	    -11.93397546	    -17.35376995	     30.69202324	     12.91251293	     28.29986742	    -38.50194472	     10.07463814	     -7.76629555
      1.62500000	     22.07562644	     -6.18738636	      6.52242811	     -0.18347443	      0.85643714	     -0.01146317	     -6.08796551	      8.13676457	    -16.78272546	    -13.99909838	     27.77218691	      7.31860854	     37.89460563	    -25.27575660	     -6.40949990	    -12.09163835	    -17.38023520	     30.93901819	     13.11281507	     28.22301568	    -38.47325276	     10.17849489	     -7.87816019
      1.63000000	     22.07562013	     -6.21086974	      6.66834516	     -0.17709964	      0.85556392	     -0.01102691	     -6.48975264	      8.43886276	    -17.26943951	    -10.97562876	     26.86649943	      7.71699133	     39.49430197	    -25.64330926	     -6.61467546	    -12.32954332	    -17.65455801	     31.43520406	     13.50507608	     27.96197895	    -38.36399715	     10.25862345	     -7.96828367
      1.63500000	     22.04413822	     -6.11502097	      6.81709024	     -0.17077611	      0.85463438	     -0.01064037	     -6.81615564	      8.59632638	    -17.88544876	     -8.26624652	     26.07297860	      8.37966555	     39.71253832	    -25.99429752	     -6.67628709	    -12.37018333	    -17.85656684	     31.70331378	     13.67504874	     27.94552170	    -38.22965853	     10.23097530	     -8.14425796
